<svg width="24" height="22" viewBox="0 0 24 22" fill="none" xmlns="http://www.w3.org/2000/svg">
<path d="M0.11483 8.99411C0.0459321 9.5308 0 10.0764 0 10.631C0 15.506 2.74215 19.7504 6.80255 22L7.56043 20.4436V9.81256L6.71987 8.99411H0.11483ZM23.5172 9.81256C23.5172 8.9941 22.6767 8.17565 21.8361 8.17565H15.1163C15.5342 6.53873 15.9568 4.90628 15.9568 4.08782C15.9568 2.4509 15.1163 0.818459 14.6983 0.406993C14.6891 0.398048 14.2803 0 13.4397 0C12.1812 0 12.1812 1.22545 12.1812 1.22545C12.1812 1.24781 11.7632 3.26936 11.7632 4.08782C11.7632 4.90628 10.0821 8.17565 9.24154 8.99411L8.40098 9.4011V20.8506L9.24154 21.2576H18.4785C20.1596 21.2576 21.0002 20.4391 21.0002 19.6207C21.0002 18.8022 20.1596 17.9837 19.319 17.9837C21.0002 17.9837 21.8407 17.1653 21.8407 16.3468C21.8407 15.5284 21.0002 14.7099 20.1596 14.7099C21.8407 14.7099 22.6813 13.8914 22.6813 13.073C22.6813 12.2545 21.8407 11.4361 21.0002 11.4361C22.6767 11.4495 23.5172 10.631 23.5172 9.81256Z" fill="#B5EEF7"/>
</svg>
